<?xml version="1.0" encoding="utf-8"?>
<!-- Generator: Adobe Illustrator 16.0.0, SVG Export Plug-In . SVG Version: 6.00 Build 0)  -->
<!DOCTYPE svg PUBLIC "-//W3C//DTD SVG 1.1//EN" "http://www.w3.org/Graphics/SVG/1.1/DTD/svg11.dtd">
<svg version="1.1" id="Layer_1" xmlns="http://www.w3.org/2000/svg" xmlns:xlink="http://www.w3.org/1999/xlink" x="0px" y="0px"
	 width="488.415px" height="167.683px" viewBox="0 0 488.415 167.683" enable-background="new 0 0 488.415 167.683"
	 xml:space="preserve">
<g>
	<path fill="#640722" d="M302.045,98.983v17.52H274.76V46.019h25.775v17.52H274.76v8.359h22.654V88.51H274.76v10.473H302.045z"/>
	<path fill="#640722" d="M417.328,63.538v52.964h-19.131V63.538H417.328z"/>
	<g>
		<g>
			<path fill="#640722" d="M226.205,116.504l-16.111-22.354l-16.111,22.354h-24.166l27.691-37.46l12.586-14.902l13.492-18.125
				h24.168L222.68,79.044l27.691,37.46H226.205z"/>
		</g>
	</g>
	<g>
		<polygon fill="#9DD5BC" points="197.508,79.044 210.094,64.142 196.602,46.017 172.436,46.017 		"/>
	</g>
	<g>
		<rect x="145.15" y="46.017" fill="#640722" width="19.131" height="70.488"/>
	</g>
	<g>
		<polygon fill="#F3773F" points="119.781,46.017 110.316,81.36 120.186,116.504 139.619,116.504 		"/>
	</g>
	<g>
		<polygon fill="#640722" points="119.781,46.017 105.584,46.017 92.393,76.729 79.102,46.017 64.904,46.017 45.068,116.504 
			64.502,116.504 74.369,81.36 86.051,106.938 98.637,106.938 110.316,81.36 		"/>
	</g>
	<rect x="380.576" y="46.019" fill="#F3773F" width="54.375" height="17.52"/>
	<polygon fill="#9DD5BC" points="352.791,46.019 380.078,116.502 358.934,116.502 335.625,46.019 	"/>
	<rect x="255.629" y="46.017" fill="#F3773F" width="19.131" height="70.486"/>
	<polygon fill="#640722" points="332.225,46.019 335.5,46.019 342.445,66.312 335.246,88.208 349.453,88.208 354.447,103.313 
		330.412,103.313 326.082,116.502 304.938,116.502 	"/>
</g>
</svg>
