<?xml version="1.0" encoding="utf-8"?>
<!-- Generator: Adobe Illustrator 16.0.0, SVG Export Plug-In . SVG Version: 6.00 Build 0)  -->
<!DOCTYPE svg PUBLIC "-//W3C//DTD SVG 1.1//EN" "http://www.w3.org/Graphics/SVG/1.1/DTD/svg11.dtd">
<svg version="1.1" id="Layer_1" xmlns="http://www.w3.org/2000/svg" xmlns:xlink="http://www.w3.org/1999/xlink" x="0px" y="0px"
	 width="488.415px" height="167.683px" viewBox="0 0 488.415 167.683" enable-background="new 0 0 488.415 167.683"
	 xml:space="preserve">
<g>
	<path fill="#1A1717" d="M302.167,99.594v17.52h-27.285V46.629h25.775v17.52h-25.775v8.359h22.654v16.613h-22.654v10.473H302.167z"
		/>
	<path fill="#1A1717" d="M417.45,64.149v52.965h-19.131V64.149H417.45z"/>
	<g>
		<g>
			<path fill="#1A1717" d="M226.327,117.116l-16.111-22.354l-16.111,22.354h-24.166l27.691-37.461l12.586-14.902l13.492-18.125
				h24.168l-25.074,33.027l27.691,37.461H226.327z"/>
		</g>
	</g>
	<g>
		<polygon fill="#BBBDBF" points="197.63,79.655 210.216,64.752 196.724,46.627 172.558,46.627 		"/>
	</g>
	<g>
		<rect x="145.272" y="46.627" fill="#1A1717" width="19.131" height="70.488"/>
	</g>
	<g>
		<polygon fill="#BBBDBF" points="119.903,46.627 110.438,81.971 120.308,117.116 139.741,117.116 		"/>
	</g>
	<g>
		<polygon fill="#1A1717" points="119.903,46.627 105.706,46.627 92.515,77.34 79.224,46.627 65.026,46.627 45.19,117.116 
			64.624,117.116 74.491,81.971 86.173,107.549 98.759,107.549 110.438,81.971 		"/>
	</g>
	<rect x="380.698" y="46.629" fill="#BBBDBF" width="54.375" height="17.52"/>
	<polygon fill="#BBBDBF" points="352.913,46.629 380.2,117.114 359.056,117.114 335.747,46.629 	"/>
	<rect x="255.751" y="46.627" fill="#BBBDBF" width="19.131" height="70.486"/>
	<polygon fill="#1A1717" points="332.347,46.629 335.622,46.629 342.567,66.922 335.368,88.819 349.575,88.819 354.569,103.924 
		330.534,103.924 326.204,117.114 305.06,117.114 	"/>
</g>
</svg>
