<?xml version="1.0" encoding="utf-8"?>
<!-- Generator: Adobe Illustrator 16.0.0, SVG Export Plug-In . SVG Version: 6.00 Build 0)  -->
<!DOCTYPE svg PUBLIC "-//W3C//DTD SVG 1.1//EN" "http://www.w3.org/Graphics/SVG/1.1/DTD/svg11.dtd">
<svg version="1.1" id="Layer_1" xmlns="http://www.w3.org/2000/svg" xmlns:xlink="http://www.w3.org/1999/xlink" x="0px" y="0px"
	 width="100px" height="100px" viewBox="0 0 100 100" enable-background="new 0 0 100 100" xml:space="preserve">
<g>
	<path fill="#F1F2F2" d="M26.956,72.659c0,0-0.522-0.473-0.681-1.273c-0.157-0.801,0-1.547,0.277-1.547
		c0.273,0,0.585,0.454,0.705,0.974c0.118,0.52,0,0.982-0.088,1.233C27.118,72.199,26.956,72.659,26.956,72.659z"/>
	<path fill="#F1F2F2" d="M31.92,63.937c0,0-0.523-0.473-0.682-1.272c-0.154-0.803,0.002-1.548,0.277-1.548
		c0.272,0,0.588,0.454,0.705,0.974c0.117,0.521,0.001,0.984-0.086,1.234C32.081,63.479,31.92,63.937,31.92,63.937z"/>
	<path fill="#F1F2F2" d="M36.678,63.937c0,0-0.524-0.473-0.679-1.272c-0.158-0.803,0-1.548,0.273-1.548
		c0.277,0,0.588,0.454,0.707,0.974c0.121,0.521,0,0.984-0.086,1.234C36.841,63.479,36.678,63.937,36.678,63.937z"/>
	<path fill="#F1F2F2" d="M37.109,55.296c0,0-0.522-0.472-0.681-1.274c-0.156-0.801,0.002-1.545,0.278-1.545
		c0.272,0,0.587,0.454,0.706,0.972c0.12,0.52,0.001,0.983-0.088,1.233C37.271,54.837,37.109,55.296,37.109,55.296z"/>
	<path fill="#F1F2F2" d="M38.204,60.306c0,0-0.525-0.471-0.68-1.274c-0.156-0.802,0-1.546,0.275-1.546s0.588,0.455,0.707,0.973
		c0.117,0.52,0,0.982-0.087,1.234C38.368,59.846,38.204,60.306,38.204,60.306z"/>
	<path fill="#F1F2F2" d="M38.383,74.81c0,0-0.522-0.471-0.68-1.275c-0.158-0.801,0-1.543,0.276-1.543
		c0.273,0,0.588,0.454,0.707,0.972c0.117,0.518,0,0.982-0.086,1.235C38.545,74.35,38.383,74.81,38.383,74.81z"/>
	<path fill="#F1F2F2" d="M26.673,61.674c0,0-0.072-0.891,0.259-1.568c0.335-0.68,0.831-0.964,1.002-0.653
		c0.17,0.314,0.122,0.953-0.083,1.414c-0.204,0.457-0.524,0.613-0.713,0.671C27.021,61.57,26.673,61.674,26.673,61.674z"/>
	<path fill="#F1F2F2" d="M26.088,54.312c0,0-0.072-0.89,0.26-1.569c0.331-0.681,0.828-0.965,1-0.652
		c0.172,0.314,0.126,0.954-0.079,1.411c-0.205,0.46-0.527,0.614-0.718,0.673C26.437,54.21,26.088,54.312,26.088,54.312z"/>
	<path fill="#F1F2F2" d="M33.435,58.897c0,0-0.071-0.892,0.261-1.571c0.332-0.677,0.826-0.963,0.999-0.65
		c0.172,0.312,0.123,0.952-0.082,1.411c-0.203,0.458-0.525,0.612-0.715,0.674C33.782,58.795,33.435,58.897,33.435,58.897z"/>
	<path fill="#F1F2F2" d="M29.749,68.667c0,0-0.076-0.889,0.258-1.567c0.331-0.682,0.828-0.966,1-0.653
		c0.171,0.314,0.123,0.954-0.081,1.414c-0.204,0.457-0.525,0.611-0.717,0.668C30.095,68.564,29.749,68.667,29.749,68.667z"/>
	<path fill="#F1F2F2" d="M28.726,65.415c0,0-0.352-0.733-0.28-1.561c0.074-0.826,0.42-1.423,0.674-1.262
		c0.253,0.157,0.417,0.757,0.386,1.299c-0.032,0.545-0.267,0.903-0.414,1.085C28.999,65.086,28.726,65.415,28.726,65.415z"/>
	<path fill="#F1F2F2" d="M32.743,74.278c0,0-0.353-0.733-0.278-1.561c0.073-0.828,0.418-1.423,0.671-1.264s0.417,0.756,0.384,1.301
		c-0.031,0.544-0.263,0.901-0.41,1.084C33.017,73.948,32.743,74.278,32.743,74.278z"/>
	<path fill="#F1F2F2" d="M25.491,68.302c0,0-0.351-0.734-0.281-1.561c0.076-0.826,0.42-1.42,0.673-1.261
		c0.255,0.159,0.417,0.755,0.387,1.3c-0.031,0.546-0.266,0.899-0.415,1.083C25.766,67.975,25.491,68.302,25.491,68.302z"/>
	<path fill="#F1F2F2" d="M32.331,54.843c0,0-0.352-0.735-0.28-1.562c0.076-0.829,0.423-1.42,0.675-1.262
		c0.253,0.157,0.416,0.756,0.384,1.299c-0.031,0.545-0.264,0.901-0.412,1.085C32.604,54.514,32.331,54.843,32.331,54.843z"/>
	<path fill="#F1F2F2" d="M28.326,57.159c0,0-0.353-0.733-0.278-1.561c0.073-0.828,0.418-1.418,0.67-1.261
		c0.255,0.159,0.417,0.755,0.386,1.301c-0.031,0.545-0.267,0.901-0.412,1.082C28.599,56.832,28.326,57.159,28.326,57.159z"/>
	<path fill="#F1F2F2" d="M35.26,72.423c0,0-0.073-0.89,0.257-1.568c0.334-0.678,0.829-0.966,1.002-0.65
		c0.171,0.311,0.122,0.952-0.082,1.41c-0.204,0.457-0.525,0.613-0.715,0.67C35.604,72.32,35.26,72.423,35.26,72.423z"/>
	<path fill="#F1F2F2" d="M34.027,67.801c0,0-0.074-0.889,0.257-1.568c0.332-0.681,0.829-0.965,1-0.653
		c0.173,0.315,0.124,0.954-0.081,1.412c-0.203,0.46-0.525,0.613-0.715,0.673C34.372,67.696,34.027,67.801,34.027,67.801z"/>
	<path fill="#F1F2F2" d="M24.572,60.07c0,0-0.073-0.889,0.257-1.568c0.332-0.679,0.829-0.965,1.002-0.649
		c0.171,0.312,0.123,0.951-0.082,1.411c-0.202,0.457-0.526,0.611-0.716,0.67C24.917,59.968,24.572,60.07,24.572,60.07z"/>
	<path fill="#F1F2F2" d="M41.627,56.704c0,0-0.524-0.472-0.682-1.272c-0.156-0.804,0.003-1.548,0.276-1.548
		c0.275,0,0.588,0.456,0.707,0.975c0.118,0.52,0,0.981-0.086,1.231C41.789,56.244,41.627,56.704,41.627,56.704z"/>
	<path fill="#F1F2F2" d="M44.977,72.659c0,0-0.522-0.473-0.68-1.273c-0.158-0.801,0-1.547,0.274-1.547
		c0.275,0,0.588,0.454,0.706,0.974c0.12,0.52,0.003,0.982-0.085,1.233C45.139,72.199,44.977,72.659,44.977,72.659z"/>
	<path fill="#F1F2F2" d="M49.942,63.937c0,0-0.523-0.473-0.682-1.272c-0.156-0.803,0.002-1.548,0.273-1.548
		c0.274,0,0.59,0.454,0.709,0.974c0.117,0.521,0,0.984-0.087,1.234C50.103,63.479,49.942,63.937,49.942,63.937z"/>
	<path fill="#F1F2F2" d="M54.699,63.937c0,0-0.521-0.473-0.68-1.272c-0.156-0.803,0.002-1.548,0.275-1.548
		c0.272,0,0.586,0.454,0.704,0.974c0.119,0.521,0,0.984-0.084,1.234C54.86,63.479,54.699,63.937,54.699,63.937z"/>
	<path fill="#F1F2F2" d="M55.13,55.296c0,0-0.521-0.472-0.679-1.274c-0.156-0.801,0-1.545,0.275-1.545
		c0.272,0,0.588,0.454,0.707,0.972c0.119,0.52,0,0.983-0.088,1.233C55.293,54.837,55.13,55.296,55.13,55.296z"/>
	<path fill="#F1F2F2" d="M56.225,60.306c0,0-0.523-0.471-0.679-1.274c-0.159-0.802,0-1.546,0.275-1.546
		c0.274,0,0.585,0.455,0.704,0.973c0.119,0.52,0,0.982-0.085,1.234C56.386,59.846,56.225,60.306,56.225,60.306z"/>
	<path fill="#F1F2F2" d="M55.974,74.81c0,0-0.522-0.471-0.681-1.275c-0.154-0.801,0.002-1.543,0.277-1.543s0.586,0.454,0.707,0.972
		c0.117,0.518,0,0.982-0.088,1.235C56.136,74.35,55.974,74.81,55.974,74.81z"/>
	<path fill="#F1F2F2" d="M44.693,61.243c0,0-0.074-0.891,0.26-1.569c0.331-0.678,0.83-0.962,1-0.653
		c0.172,0.314,0.125,0.954-0.081,1.414c-0.202,0.458-0.525,0.614-0.714,0.671C45.042,61.14,44.693,61.243,44.693,61.243z"/>
	<path fill="#F1F2F2" d="M43.25,54.312c0,0-0.074-0.89,0.256-1.569c0.334-0.681,0.831-0.965,1.002-0.652
		c0.173,0.314,0.123,0.954-0.082,1.411c-0.202,0.46-0.523,0.614-0.713,0.673C43.596,54.21,43.25,54.312,43.25,54.312z"/>
	<path fill="#F1F2F2" d="M51.454,58.897c0,0-0.07-0.892,0.261-1.571c0.331-0.677,0.828-0.963,1-0.65
		c0.171,0.312,0.122,0.952-0.081,1.411c-0.203,0.458-0.526,0.612-0.717,0.674C51.804,58.795,51.454,58.897,51.454,58.897z"/>
	<path fill="#F1F2F2" d="M47.767,68.667c0,0-0.071-0.889,0.261-1.567c0.333-0.682,0.829-0.966,1-0.653
		c0.171,0.314,0.122,0.954-0.079,1.414c-0.204,0.457-0.528,0.611-0.717,0.668C48.116,68.564,47.767,68.667,47.767,68.667z"/>
	<path fill="#F1F2F2" d="M46.747,65.415c0,0-0.353-0.733-0.279-1.561c0.071-0.826,0.418-1.423,0.673-1.262
		c0.251,0.157,0.416,0.757,0.384,1.299c-0.031,0.545-0.266,0.903-0.414,1.085C47.021,65.086,46.747,65.415,46.747,65.415z"/>
	<path fill="#F1F2F2" d="M50.334,73.847c0,0-0.353-0.733-0.28-1.56c0.071-0.827,0.42-1.423,0.673-1.264s0.417,0.757,0.386,1.301
		c-0.035,0.545-0.266,0.902-0.414,1.083C50.606,73.518,50.334,73.847,50.334,73.847z"/>
	<path fill="#F1F2F2" d="M39.783,70.647c0,0-0.35-0.733-0.276-1.56c0.072-0.826,0.418-1.42,0.669-1.262
		c0.253,0.157,0.418,0.756,0.386,1.301c-0.03,0.544-0.265,0.903-0.414,1.081C40.06,70.32,39.783,70.647,39.783,70.647z"/>
	<path fill="#F1F2F2" d="M43.513,68.302c0,0-0.354-0.734-0.28-1.561c0.074-0.826,0.42-1.42,0.673-1.261
		c0.251,0.159,0.415,0.755,0.384,1.3c-0.031,0.546-0.265,0.899-0.412,1.083C43.786,67.975,43.513,68.302,43.513,68.302z"/>
	<path fill="#F1F2F2" d="M40.014,62.837c0,0-0.354-0.734-0.279-1.562c0.072-0.829,0.421-1.42,0.672-1.262
		c0.252,0.157,0.417,0.754,0.383,1.301c-0.031,0.546-0.265,0.9-0.412,1.083C40.286,62.508,40.014,62.837,40.014,62.837z"/>
	<path fill="#F1F2F2" d="M50.353,54.843c0,0-0.351-0.735-0.279-1.562c0.073-0.829,0.42-1.42,0.673-1.262
		c0.251,0.157,0.415,0.756,0.385,1.299c-0.032,0.545-0.266,0.901-0.413,1.085C50.625,54.514,50.353,54.843,50.353,54.843z"/>
	<path fill="#F1F2F2" d="M46.349,57.159c0,0-0.354-0.733-0.283-1.561c0.075-0.828,0.423-1.418,0.675-1.261
		c0.254,0.159,0.418,0.755,0.385,1.301c-0.032,0.545-0.266,0.901-0.412,1.082C46.621,56.832,46.349,57.159,46.349,57.159z"/>
	<path fill="#F1F2F2" d="M53.278,72.423c0,0-0.072-0.89,0.256-1.568c0.335-0.678,0.832-0.966,1.006-0.65
		c0.17,0.311,0.122,0.952-0.083,1.41c-0.205,0.457-0.526,0.613-0.717,0.67C53.627,72.32,53.278,72.423,53.278,72.423z"/>
	<path fill="#F1F2F2" d="M52.046,67.801c0,0-0.074-0.889,0.26-1.568c0.333-0.681,0.83-0.965,1.001-0.653
		c0.17,0.315,0.124,0.954-0.082,1.412c-0.205,0.46-0.526,0.613-0.716,0.673C52.394,67.696,52.046,67.801,52.046,67.801z"/>
	<path fill="#F1F2F2" d="M41.301,65.108c0,0-0.074-0.887,0.259-1.566c0.331-0.681,0.828-0.965,0.999-0.649
		c0.174,0.31,0.123,0.95-0.081,1.409c-0.203,0.457-0.524,0.613-0.715,0.67C41.647,65.008,41.301,65.108,41.301,65.108z"/>
	<path fill="#F1F2F2" d="M41.44,73.646c0,0-0.075-0.887,0.256-1.568c0.334-0.679,0.831-0.963,1.002-0.65s0.122,0.956-0.08,1.414
		c-0.204,0.457-0.528,0.61-0.716,0.668C41.786,73.543,41.44,73.646,41.44,73.646z"/>
	<path fill="#F1F2F2" d="M27.386,47.966c0,0-0.522-0.472-0.68-1.272c-0.158-0.804,0-1.546,0.276-1.546
		c0.274,0,0.585,0.452,0.707,0.974c0.116,0.518,0,0.98-0.089,1.231C27.548,47.506,27.386,47.966,27.386,47.966z"/>
	<path fill="#F1F2F2" d="M31.92,39.241c0,0-0.523-0.472-0.682-1.271c-0.154-0.804,0.002-1.548,0.277-1.548
		c0.272,0,0.588,0.457,0.705,0.977c0.117,0.516,0.001,0.979-0.086,1.23C32.081,38.784,31.92,39.241,31.92,39.241z"/>
	<path fill="#F1F2F2" d="M36.678,39.241c0,0-0.524-0.472-0.679-1.271c-0.158-0.804,0-1.548,0.273-1.548
		c0.277,0,0.588,0.457,0.707,0.977c0.121,0.516,0,0.979-0.086,1.23C36.841,38.784,36.678,39.241,36.678,39.241z"/>
	<path fill="#F1F2F2" d="M37.109,30.602c0,0-0.522-0.472-0.681-1.273c-0.156-0.801,0.002-1.546,0.278-1.546
		c0.272,0,0.587,0.455,0.706,0.975c0.12,0.518,0.001,0.98-0.088,1.23C37.271,30.142,37.109,30.602,37.109,30.602z"/>
	<path fill="#F1F2F2" d="M38.204,35.612c0,0-0.525-0.472-0.68-1.274c-0.156-0.8,0-1.543,0.275-1.543s0.588,0.452,0.707,0.972
		c0.117,0.517,0,0.98-0.087,1.233C38.368,35.152,38.204,35.612,38.204,35.612z"/>
	<path fill="#F1F2F2" d="M37.953,50.977c0,0-0.522-0.471-0.681-1.274c-0.157-0.799,0-1.544,0.277-1.544
		c0.273,0,0.588,0.455,0.705,0.973c0.119,0.52,0,0.982-0.085,1.234C38.115,50.519,37.953,50.977,37.953,50.977z"/>
	<path fill="#F1F2F2" d="M26.673,36.55c0,0-0.072-0.889,0.259-1.57c0.335-0.677,0.831-0.963,1.002-0.65
		c0.17,0.314,0.122,0.954-0.083,1.412c-0.204,0.457-0.524,0.613-0.713,0.673C27.021,36.445,26.673,36.55,26.673,36.55z"/>
	<path fill="#F1F2F2" d="M25.229,29.188c0,0-0.073-0.888,0.259-1.569c0.332-0.677,0.829-0.963,1-0.648
		c0.173,0.312,0.125,0.952-0.08,1.41c-0.204,0.457-0.527,0.613-0.716,0.673C25.575,29.085,25.229,29.188,25.229,29.188z"/>
	<path fill="#F1F2F2" d="M33.435,34.203c0,0-0.071-0.889,0.261-1.568c0.332-0.679,0.826-0.965,0.999-0.652
		c0.172,0.312,0.123,0.955-0.082,1.412c-0.203,0.459-0.525,0.613-0.715,0.671C33.782,34.101,33.435,34.203,33.435,34.203z"/>
	<path fill="#F1F2F2" d="M29.749,43.974c0,0-0.076-0.889,0.258-1.568c0.331-0.679,0.828-0.963,1-0.65
		c0.171,0.312,0.123,0.951-0.081,1.41s-0.525,0.613-0.717,0.673C30.095,43.872,29.749,43.974,29.749,43.974z"/>
	<path fill="#F1F2F2" d="M28.726,40.724c0,0-0.352-0.736-0.28-1.564c0.074-0.825,0.42-1.416,0.674-1.26
		c0.253,0.157,0.417,0.756,0.386,1.301c-0.032,0.544-0.267,0.901-0.414,1.083C28.999,40.395,28.726,40.724,28.726,40.724z"/>
	<path fill="#F1F2F2" d="M32.313,49.155c0,0-0.354-0.737-0.28-1.562c0.074-0.828,0.42-1.42,0.673-1.262
		c0.253,0.159,0.416,0.757,0.384,1.299c-0.031,0.546-0.264,0.901-0.411,1.083C32.587,48.826,32.313,49.155,32.313,49.155z"/>
	<path fill="#F1F2F2" d="M29.261,52.448c0,0-0.353-0.732-0.276-1.56c0.069-0.827,0.418-1.42,0.669-1.262
		c0.252,0.159,0.417,0.757,0.386,1.301c-0.031,0.543-0.264,0.899-0.413,1.084C29.533,52.122,29.261,52.448,29.261,52.448z"/>
	<path fill="#F1F2F2" d="M25.491,43.61c0,0-0.351-0.736-0.281-1.562c0.076-0.827,0.42-1.421,0.673-1.264
		c0.255,0.161,0.417,0.758,0.387,1.301c-0.031,0.546-0.266,0.903-0.415,1.085C25.766,43.28,25.491,43.61,25.491,43.61z"/>
	<path fill="#F1F2F2" d="M30.609,30.147c0,0-0.35-0.733-0.278-1.561c0.074-0.827,0.421-1.42,0.672-1.261
		c0.254,0.156,0.417,0.755,0.385,1.298c-0.031,0.546-0.264,0.903-0.411,1.085C30.885,29.819,30.609,30.147,30.609,30.147z"/>
	<path fill="#F1F2F2" d="M28.326,32.466c0,0-0.353-0.733-0.278-1.561c0.073-0.827,0.418-1.418,0.67-1.262
		c0.255,0.159,0.417,0.756,0.386,1.302c-0.031,0.542-0.267,0.901-0.412,1.082C28.599,32.139,28.326,32.466,28.326,32.466z"/>
	<path fill="#F1F2F2" d="M35.26,47.729c0,0-0.073-0.887,0.257-1.568c0.334-0.679,0.829-0.966,1.002-0.65
		c0.171,0.312,0.122,0.951-0.082,1.409c-0.204,0.46-0.525,0.616-0.715,0.673C35.604,47.627,35.26,47.729,35.26,47.729z"/>
	<path fill="#F1F2F2" d="M34.027,43.106c0,0-0.074-0.889,0.257-1.569c0.332-0.677,0.829-0.962,1-0.648
		c0.173,0.312,0.124,0.952-0.081,1.411c-0.203,0.458-0.525,0.614-0.715,0.671C34.372,43.005,34.027,43.106,34.027,43.106z"/>
	<path fill="#F1F2F2" d="M24.973,34.359c0,0-0.071-0.891,0.259-1.57c0.332-0.68,0.828-0.963,1.001-0.648
		c0.171,0.312,0.124,0.95-0.082,1.407c-0.203,0.46-0.526,0.618-0.716,0.676C25.319,34.26,24.973,34.359,24.973,34.359z"/>
	<path fill="#F1F2F2" d="M24.629,51.42c0,0-0.073-0.89,0.257-1.571c0.332-0.676,0.83-0.963,1.002-0.649
		c0.172,0.314,0.123,0.954-0.081,1.413c-0.203,0.458-0.524,0.611-0.714,0.669C24.974,51.317,24.629,51.42,24.629,51.42z"/>
	<path fill="#F1F2F2" d="M41.627,32.013c0,0-0.524-0.474-0.682-1.275c-0.156-0.8,0.003-1.545,0.276-1.545
		c0.275,0,0.588,0.457,0.707,0.974c0.118,0.516,0,0.981-0.086,1.231C41.789,31.553,41.627,32.013,41.627,32.013z"/>
	<path fill="#F1F2F2" d="M44.977,47.966c0,0-0.522-0.472-0.68-1.272c-0.158-0.804,0-1.546,0.274-1.546
		c0.275,0,0.588,0.452,0.706,0.974c0.12,0.518,0.003,0.98-0.085,1.231C45.139,47.506,44.977,47.966,44.977,47.966z"/>
	<path fill="#F1F2F2" d="M49.942,39.241c0,0-0.523-0.472-0.682-1.271c-0.156-0.804,0.002-1.548,0.273-1.548
		c0.274,0,0.59,0.457,0.709,0.977c0.117,0.516,0,0.979-0.087,1.23C50.103,38.784,49.942,39.241,49.942,39.241z"/>
	<path fill="#F1F2F2" d="M54.699,39.241c0,0-0.521-0.472-0.68-1.271c-0.156-0.804,0.002-1.548,0.275-1.548
		c0.272,0,0.586,0.457,0.704,0.977c0.119,0.516,0,0.979-0.084,1.23C54.86,38.784,54.699,39.241,54.699,39.241z"/>
	<path fill="#F1F2F2" d="M53.84,30.602c0,0-0.522-0.472-0.681-1.273c-0.156-0.801,0.002-1.546,0.275-1.546
		c0.274,0,0.588,0.455,0.707,0.975c0.12,0.518,0,0.98-0.086,1.23C54.003,30.142,53.84,30.602,53.84,30.602z"/>
	<path fill="#F1F2F2" d="M56.225,35.612c0,0-0.523-0.472-0.679-1.274c-0.159-0.8,0-1.543,0.275-1.543
		c0.274,0,0.585,0.452,0.704,0.972c0.119,0.517,0,0.98-0.085,1.233C56.386,35.152,56.225,35.612,56.225,35.612z"/>
	<path fill="#F1F2F2" d="M55.974,50.977c0,0-0.522-0.471-0.681-1.274c-0.154-0.799,0.002-1.544,0.277-1.544s0.586,0.455,0.707,0.973
		c0.117,0.52,0,0.982-0.088,1.234C56.136,50.519,55.974,50.977,55.974,50.977z"/>
	<path fill="#F1F2F2" d="M44.693,36.55c0,0-0.074-0.889,0.26-1.57c0.331-0.677,0.83-0.963,1-0.65
		c0.172,0.314,0.125,0.954-0.081,1.412c-0.202,0.457-0.525,0.613-0.714,0.673C45.042,36.445,44.693,36.55,44.693,36.55z"/>
	<path fill="#F1F2F2" d="M43.25,29.188c0,0-0.074-0.888,0.256-1.569c0.334-0.677,0.831-0.963,1.002-0.648
		c0.173,0.312,0.123,0.952-0.082,1.41c-0.202,0.457-0.523,0.613-0.713,0.673C43.596,29.085,43.25,29.188,43.25,29.188z"/>
	<path fill="#F1F2F2" d="M51.454,34.203c0,0-0.07-0.889,0.261-1.568c0.331-0.679,0.828-0.965,1-0.652
		c0.171,0.312,0.122,0.955-0.081,1.412c-0.203,0.459-0.526,0.613-0.717,0.671C51.804,34.101,51.454,34.203,51.454,34.203z"/>
	<path fill="#F1F2F2" d="M47.767,43.974c0,0-0.071-0.889,0.261-1.568c0.333-0.679,0.829-0.963,1-0.65s0.122,0.951-0.079,1.41
		c-0.204,0.459-0.528,0.613-0.717,0.673C48.116,43.872,47.767,43.974,47.767,43.974z"/>
	<path fill="#F1F2F2" d="M46.747,40.724c0,0-0.353-0.736-0.279-1.564c0.071-0.825,0.418-1.416,0.673-1.26
		c0.251,0.157,0.416,0.756,0.384,1.301c-0.031,0.544-0.266,0.901-0.414,1.083C47.021,40.395,46.747,40.724,46.747,40.724z"/>
	<path fill="#F1F2F2" d="M50.334,49.155c0,0-0.353-0.737-0.28-1.562c0.071-0.828,0.42-1.42,0.673-1.262
		c0.253,0.159,0.417,0.757,0.386,1.299c-0.035,0.546-0.266,0.901-0.414,1.083C50.606,48.826,50.334,49.155,50.334,49.155z"/>
	<path fill="#F1F2F2" d="M47.281,52.448c0,0-0.353-0.732-0.278-1.56c0.072-0.827,0.419-1.42,0.672-1.262
		c0.253,0.159,0.418,0.757,0.385,1.301c-0.032,0.543-0.264,0.899-0.412,1.084C47.556,52.122,47.281,52.448,47.281,52.448z"/>
	<path fill="#F1F2F2" d="M39.783,45.954c0,0-0.35-0.732-0.276-1.56c0.072-0.826,0.418-1.42,0.669-1.262
		c0.253,0.156,0.418,0.758,0.386,1.301c-0.03,0.543-0.265,0.901-0.414,1.081C40.06,45.627,39.783,45.954,39.783,45.954z"/>
	<path fill="#F1F2F2" d="M43.513,43.61c0,0-0.354-0.736-0.28-1.562c0.074-0.827,0.42-1.421,0.673-1.264
		c0.251,0.161,0.415,0.758,0.384,1.301c-0.031,0.546-0.265,0.903-0.412,1.085C43.786,43.28,43.513,43.61,43.513,43.61z"/>
	<path fill="#F1F2F2" d="M40.014,38.144c0,0-0.354-0.735-0.279-1.562c0.072-0.826,0.421-1.418,0.672-1.261
		c0.252,0.158,0.417,0.755,0.383,1.301c-0.031,0.544-0.265,0.901-0.412,1.082C40.286,37.812,40.014,38.144,40.014,38.144z"/>
	<path fill="#F1F2F2" d="M48.631,29.718c0,0-0.351-0.735-0.278-1.561c0.073-0.828,0.42-1.42,0.672-1.263
		c0.251,0.158,0.415,0.756,0.385,1.3c-0.032,0.544-0.266,0.902-0.412,1.084C48.903,29.389,48.631,29.718,48.631,29.718z"/>
	<path fill="#F1F2F2" d="M46.349,32.466c0,0-0.354-0.733-0.283-1.561c0.075-0.827,0.423-1.418,0.675-1.262
		c0.254,0.159,0.418,0.756,0.385,1.302c-0.032,0.542-0.266,0.901-0.412,1.082C46.621,32.139,46.349,32.466,46.349,32.466z"/>
	<path fill="#F1F2F2" d="M53.278,47.729c0,0-0.072-0.887,0.256-1.568c0.335-0.679,0.832-0.966,1.006-0.65
		c0.17,0.312,0.122,0.951-0.083,1.409c-0.205,0.46-0.526,0.616-0.717,0.673C53.627,47.627,53.278,47.729,53.278,47.729z"/>
	<path fill="#F1F2F2" d="M52.046,43.106c0,0-0.074-0.889,0.26-1.569c0.333-0.677,0.83-0.962,1.001-0.648
		c0.17,0.312,0.124,0.952-0.082,1.411c-0.205,0.458-0.526,0.614-0.716,0.671C52.394,43.005,52.046,43.106,52.046,43.106z"/>
	<path fill="#F1F2F2" d="M41.301,40.417c0,0-0.074-0.89,0.259-1.57c0.331-0.68,0.828-0.963,0.999-0.65
		c0.174,0.314,0.123,0.953-0.081,1.41c-0.203,0.461-0.524,0.617-0.715,0.675C41.647,40.315,41.301,40.417,41.301,40.417z"/>
	<path fill="#F1F2F2" d="M41.44,50.246c0,0-0.075-0.891,0.256-1.571c0.334-0.676,0.831-0.963,1.002-0.649
		c0.171,0.314,0.122,0.954-0.08,1.412c-0.204,0.459-0.528,0.61-0.716,0.671C41.786,50.144,41.44,50.246,41.44,50.246z"/>
	<path fill="#F1F2F2" d="M59.21,56.704c0,0-0.523-0.472-0.68-1.272c-0.156-0.804,0-1.548,0.275-1.548
		c0.273,0,0.588,0.456,0.706,0.975c0.119,0.52,0,0.981-0.087,1.231C59.371,56.244,59.21,56.704,59.21,56.704z"/>
	<path fill="#F1F2F2" d="M62.562,72.659c0,0-0.524-0.473-0.681-1.273c-0.159-0.801,0-1.547,0.274-1.547
		c0.275,0,0.586,0.454,0.706,0.974c0.118,0.52,0,0.982-0.086,1.233C62.722,72.199,62.562,72.659,62.562,72.659z"/>
	<path fill="#F1F2F2" d="M67.524,63.937c0,0-0.524-0.473-0.682-1.272c-0.156-0.803,0.001-1.548,0.277-1.548
		c0.272,0,0.588,0.454,0.706,0.974c0.116,0.521,0.001,0.984-0.088,1.234C67.687,63.479,67.524,63.937,67.524,63.937z"/>
	<path fill="#F1F2F2" d="M71.852,64.368c0,0-0.522-0.474-0.679-1.274s0-1.546,0.273-1.546c0.274,0,0.588,0.452,0.707,0.972
		c0.119,0.521,0,0.985-0.085,1.235C72.014,63.909,71.852,64.368,71.852,64.368z"/>
	<path fill="#F1F2F2" d="M72.284,56.156c0,0-0.523-0.47-0.682-1.273c-0.156-0.802,0.002-1.545,0.277-1.545
		c0.273,0,0.588,0.452,0.705,0.972c0.119,0.518,0.001,0.983-0.086,1.233C72.445,55.696,72.284,56.156,72.284,56.156z"/>
	<path fill="#F1F2F2" d="M62.278,61.243c0,0-0.074-0.891,0.258-1.569c0.333-0.678,0.828-0.962,1.001-0.653
		c0.171,0.314,0.124,0.954-0.082,1.414c-0.203,0.458-0.524,0.614-0.714,0.671C62.625,61.14,62.278,61.243,62.278,61.243z"/>
	<path fill="#F1F2F2" d="M60.832,54.312c0,0-0.074-0.89,0.261-1.569c0.33-0.681,0.827-0.965,0.998-0.652
		c0.173,0.314,0.124,0.954-0.08,1.411c-0.205,0.46-0.527,0.614-0.716,0.673C61.179,54.21,60.832,54.312,60.832,54.312z"/>
	<path fill="#F1F2F2" d="M69.037,58.897c0,0-0.071-0.892,0.261-1.571c0.333-0.677,0.829-0.963,1-0.65
		c0.173,0.312,0.125,0.952-0.082,1.411c-0.204,0.458-0.525,0.612-0.714,0.674C69.387,58.795,69.037,58.897,69.037,58.897z"/>
	<path fill="#F1F2F2" d="M65.352,68.667c0,0-0.074-0.889,0.257-1.567c0.334-0.682,0.832-0.966,1.003-0.653
		c0.17,0.314,0.124,0.954-0.083,1.414c-0.202,0.457-0.523,0.611-0.716,0.668C65.698,68.564,65.352,68.667,65.352,68.667z"/>
	<path fill="#F1F2F2" d="M64.329,65.415c0,0-0.353-0.733-0.28-1.561c0.075-0.826,0.42-1.423,0.675-1.262
		c0.253,0.157,0.416,0.757,0.385,1.299c-0.032,0.545-0.266,0.903-0.413,1.085C64.603,65.086,64.329,65.415,64.329,65.415z"/>
	<path fill="#F1F2F2" d="M67.917,73.847c0,0-0.353-0.733-0.28-1.56c0.073-0.827,0.419-1.423,0.673-1.264
		c0.255,0.159,0.418,0.757,0.384,1.301c-0.031,0.545-0.265,0.902-0.41,1.083C68.19,73.518,67.917,73.847,67.917,73.847z"/>
	<path fill="#F1F2F2" d="M57.366,70.647c0,0-0.348-0.733-0.278-1.56c0.073-0.826,0.421-1.42,0.673-1.262
		c0.254,0.157,0.416,0.756,0.385,1.301c-0.032,0.544-0.265,0.903-0.415,1.081C57.64,70.32,57.366,70.647,57.366,70.647z"/>
	<path fill="#F1F2F2" d="M61.096,68.302c0,0-0.353-0.734-0.281-1.561c0.074-0.826,0.419-1.42,0.674-1.261
		c0.253,0.159,0.415,0.755,0.386,1.3c-0.031,0.546-0.267,0.899-0.416,1.083C61.368,67.975,61.096,68.302,61.096,68.302z"/>
	<path fill="#F1F2F2" d="M57.596,62.837c0,0-0.352-0.734-0.277-1.562c0.071-0.829,0.419-1.42,0.673-1.262
		c0.25,0.157,0.414,0.754,0.383,1.301c-0.03,0.546-0.264,0.9-0.412,1.083C57.869,62.508,57.596,62.837,57.596,62.837z"/>
	<path fill="#F1F2F2" d="M67.937,54.843c0,0-0.352-0.735-0.28-1.562c0.073-0.829,0.42-1.42,0.671-1.262
		c0.255,0.157,0.418,0.756,0.387,1.299c-0.031,0.545-0.265,0.901-0.415,1.085C68.208,54.514,67.937,54.843,67.937,54.843z"/>
	<path fill="#F1F2F2" d="M63.931,57.159c0,0-0.354-0.733-0.278-1.561c0.071-0.828,0.418-1.418,0.669-1.261
		c0.256,0.159,0.417,0.755,0.386,1.301c-0.031,0.545-0.267,0.901-0.412,1.082C64.202,56.832,63.931,57.159,63.931,57.159z"/>
	<path fill="#F1F2F2" d="M71.293,72.423c0,0-0.072-0.89,0.258-1.568c0.333-0.678,0.83-0.966,1.001-0.65
		c0.17,0.311,0.124,0.952-0.08,1.41c-0.205,0.457-0.526,0.613-0.716,0.67C71.64,72.32,71.293,72.423,71.293,72.423z"/>
	<path fill="#F1F2F2" d="M69.631,67.801c0,0-0.074-0.889,0.256-1.568c0.334-0.681,0.831-0.965,1.002-0.653
		c0.173,0.315,0.123,0.954-0.081,1.412c-0.205,0.46-0.524,0.613-0.717,0.673C69.977,67.696,69.631,67.801,69.631,67.801z"/>
	<path fill="#F1F2F2" d="M58.883,65.108c0,0-0.071-0.887,0.259-1.566c0.333-0.681,0.829-0.965,1.002-0.649
		c0.171,0.31,0.123,0.95-0.081,1.409c-0.204,0.457-0.526,0.613-0.716,0.67C59.229,65.008,58.883,65.108,58.883,65.108z"/>
	<path fill="#F1F2F2" d="M59.021,73.646c0,0-0.071-0.887,0.26-1.568c0.332-0.679,0.828-0.963,1.001-0.65s0.122,0.956-0.08,1.414
		c-0.205,0.457-0.526,0.61-0.716,0.668C59.368,73.543,59.021,73.646,59.021,73.646z"/>
	<path fill="#F1F2F2" d="M59.21,32.444c0,0-0.523-0.476-0.68-1.277c-0.156-0.798,0-1.543,0.275-1.543
		c0.273,0,0.588,0.455,0.706,0.973c0.119,0.517,0,0.982-0.087,1.232C59.371,31.982,59.21,32.444,59.21,32.444z"/>
	<path fill="#F1F2F2" d="M62.562,47.966c0,0-0.524-0.472-0.681-1.272c-0.159-0.804,0-1.546,0.274-1.546
		c0.275,0,0.586,0.452,0.706,0.974c0.118,0.518,0,0.98-0.086,1.231C62.722,47.506,62.562,47.966,62.562,47.966z"/>
	<path fill="#F1F2F2" d="M67.524,39.241c0,0-0.524-0.472-0.682-1.271c-0.156-0.804,0.001-1.548,0.277-1.548
		c0.272,0,0.588,0.457,0.706,0.977c0.116,0.516,0.001,0.979-0.088,1.23C67.687,38.784,67.524,39.241,67.524,39.241z"/>
	<path fill="#F1F2F2" d="M71.852,39.241c0,0-0.522-0.472-0.679-1.271c-0.156-0.804,0-1.548,0.273-1.548
		c0.274,0,0.588,0.457,0.707,0.977c0.119,0.516,0,0.979-0.085,1.23C72.014,38.784,71.852,39.241,71.852,39.241z"/>
	<path fill="#F1F2F2" d="M71.854,31.031c0,0-0.524-0.472-0.684-1.271c-0.154-0.801,0.003-1.547,0.278-1.547
		c0.274,0,0.588,0.454,0.706,0.974c0.118,0.518,0.001,0.982-0.087,1.23C72.015,30.572,71.854,31.031,71.854,31.031z"/>
	<path fill="#F1F2F2" d="M62.278,36.55c0,0-0.074-0.889,0.258-1.57c0.333-0.677,0.828-0.963,1.001-0.65
		c0.171,0.314,0.124,0.954-0.082,1.412c-0.203,0.457-0.524,0.613-0.714,0.673C62.625,36.445,62.278,36.55,62.278,36.55z"/>
	<path fill="#F1F2F2" d="M61.262,28.757c0,0-0.072-0.888,0.261-1.568c0.332-0.679,0.827-0.963,0.998-0.65
		c0.173,0.312,0.125,0.953-0.08,1.41c-0.205,0.459-0.526,0.614-0.716,0.673C61.608,28.653,61.262,28.757,61.262,28.757z"/>
	<path fill="#F1F2F2" d="M69.037,34.203c0,0-0.071-0.889,0.261-1.568c0.333-0.679,0.829-0.965,1-0.652
		c0.173,0.312,0.125,0.955-0.082,1.412c-0.204,0.459-0.525,0.613-0.714,0.671C69.387,34.101,69.037,34.203,69.037,34.203z"/>
	<path fill="#F1F2F2" d="M65.352,43.974c0,0-0.074-0.889,0.257-1.568c0.334-0.679,0.832-0.963,1.003-0.65
		c0.17,0.312,0.124,0.951-0.083,1.41c-0.202,0.459-0.523,0.613-0.716,0.673C65.698,43.872,65.352,43.974,65.352,43.974z"/>
	<path fill="#F1F2F2" d="M64.329,40.724c0,0-0.353-0.736-0.28-1.564c0.075-0.825,0.42-1.416,0.675-1.26
		c0.253,0.157,0.416,0.756,0.385,1.301c-0.032,0.544-0.266,0.901-0.413,1.083C64.603,40.395,64.329,40.724,64.329,40.724z"/>
	<path fill="#F1F2F2" d="M67.917,49.155c0,0-0.353-0.737-0.28-1.562c0.073-0.828,0.419-1.42,0.673-1.262
		c0.255,0.159,0.418,0.757,0.384,1.299c-0.031,0.546-0.265,0.901-0.41,1.083C68.19,48.826,67.917,49.155,67.917,49.155z"/>
	<path fill="#F1F2F2" d="M64.866,52.448c0,0-0.353-0.732-0.279-1.56c0.071-0.827,0.418-1.42,0.671-1.262
		c0.253,0.159,0.416,0.757,0.385,1.301c-0.031,0.543-0.265,0.899-0.413,1.084C65.137,52.122,64.866,52.448,64.866,52.448z"/>
	<path fill="#F1F2F2" d="M57.366,45.954c0,0-0.348-0.732-0.278-1.56c0.073-0.826,0.421-1.42,0.673-1.262
		c0.254,0.156,0.416,0.758,0.385,1.301c-0.032,0.543-0.265,0.901-0.415,1.081C57.64,45.627,57.366,45.954,57.366,45.954z"/>
	<path fill="#F1F2F2" d="M61.096,43.61c0,0-0.353-0.736-0.281-1.562c0.074-0.827,0.419-1.421,0.674-1.264
		c0.253,0.161,0.415,0.758,0.386,1.301c-0.031,0.546-0.267,0.903-0.416,1.085C61.368,43.28,61.096,43.61,61.096,43.61z"/>
	<path fill="#F1F2F2" d="M57.596,38.144c0,0-0.352-0.735-0.277-1.562c0.071-0.826,0.419-1.418,0.673-1.261
		c0.25,0.158,0.414,0.755,0.383,1.301c-0.03,0.544-0.264,0.901-0.412,1.082C57.869,37.812,57.596,38.144,57.596,38.144z"/>
	<path fill="#F1F2F2" d="M66.645,30.147c0,0-0.352-0.733-0.28-1.561c0.075-0.827,0.422-1.42,0.672-1.261
		c0.254,0.156,0.418,0.755,0.388,1.298c-0.032,0.546-0.266,0.903-0.415,1.085C66.918,29.819,66.645,30.147,66.645,30.147z"/>
	<path fill="#F1F2F2" d="M63.931,32.466c0,0-0.354-0.733-0.278-1.561c0.071-0.827,0.418-1.418,0.669-1.262
		c0.256,0.159,0.417,0.756,0.386,1.302c-0.031,0.542-0.267,0.901-0.412,1.082C64.202,32.139,63.931,32.466,63.931,32.466z"/>
	<path fill="#F1F2F2" d="M70.432,48.161c0,0-0.073-0.887,0.259-1.57c0.332-0.679,0.83-0.964,1-0.65
		c0.171,0.314,0.125,0.951-0.08,1.409c-0.204,0.462-0.527,0.616-0.715,0.673C70.78,48.059,70.432,48.161,70.432,48.161z"/>
	<path fill="#F1F2F2" d="M69.631,43.106c0,0-0.074-0.889,0.256-1.569c0.334-0.677,0.831-0.962,1.002-0.648
		c0.173,0.312,0.123,0.952-0.081,1.411c-0.205,0.458-0.524,0.614-0.717,0.671C69.977,43.005,69.631,43.106,69.631,43.106z"/>
	<path fill="#F1F2F2" d="M58.883,40.417c0,0-0.071-0.89,0.259-1.57c0.333-0.68,0.829-0.963,1.002-0.65
		c0.171,0.314,0.123,0.953-0.081,1.41c-0.204,0.461-0.526,0.617-0.716,0.675C59.229,40.315,58.883,40.417,58.883,40.417z"/>
	<path fill="#F1F2F2" d="M59.021,50.246c0,0-0.071-0.891,0.26-1.571c0.332-0.676,0.828-0.963,1.001-0.649
		c0.173,0.314,0.122,0.954-0.08,1.412c-0.205,0.459-0.526,0.61-0.716,0.671C59.368,50.144,59.021,50.246,59.021,50.246z"/>
</g>
<rect x="24.565" y="26.412" fill="none" width="48.091" height="48.398"/>
</svg>
