<?xml version="1.0" encoding="utf-8"?>
<!-- Generator: Adobe Illustrator 16.0.0, SVG Export Plug-In . SVG Version: 6.00 Build 0)  -->
<!DOCTYPE svg PUBLIC "-//W3C//DTD SVG 1.1//EN" "http://www.w3.org/Graphics/SVG/1.1/DTD/svg11.dtd">
<svg version="1.1" id="Layer_1" xmlns="http://www.w3.org/2000/svg" xmlns:xlink="http://www.w3.org/1999/xlink" x="0px" y="0px"
	 width="100px" height="100px" viewBox="0 0 100 100" enable-background="new 0 0 100 100" xml:space="preserve">
<pattern  width="75.09" height="76.42" patternUnits="userSpaceOnUse" id="mixeat-1" viewBox="0 -76.42 75.09 76.42" overflow="visible">
	<g>
		<polygon fill="none" points="0,-76.42 75.09,-76.42 75.09,0 0,0 		"/>
		<line fill="none" stroke="#231F20" stroke-width="0.3" x1="6.09" y1="-63.35" x2="3.34" y2="-61.35"/>
		<line fill="none" stroke="#231F20" stroke-width="0.3" x1="4.59" y1="-7.101" x2="2.34" y2="-5.351"/>
		<line fill="none" stroke="#231F20" stroke-width="0.3" x1="73.59" y1="-67.1" x2="70.34" y2="-66.35"/>
		<line fill="none" stroke="#231F20" stroke-width="0.3" x1="72.34" y1="-55.35" x2="69.84" y2="-53.6"/>
		<line fill="none" stroke="#231F20" stroke-width="0.3" x1="75.09" y1="-50.1" x2="72.09" y2="-50.1"/>
		<line fill="none" stroke="#231F20" stroke-width="0.3" x1="71.84" y1="-42.601" x2="69.09" y2="-44.351"/>
		<line fill="none" stroke="#231F20" stroke-width="0.3" x1="74.09" y1="-34.351" x2="72.09" y2="-32.851"/>
		<line fill="none" stroke="#231F20" stroke-width="0.3" x1="53.215" y1="-40.228" x2="51.215" y2="-38.728"/>
		<line fill="none" stroke="#231F20" stroke-width="0.3" x1="71.59" y1="-22.351" x2="68.84" y2="-24.601"/>
		<line fill="none" stroke="#231F20" stroke-width="0.3" x1="66.215" y1="-24.101" x2="63.465" y2="-26.351"/>
		<line fill="none" stroke="#231F20" stroke-width="0.3" x1="73.59" y1="-11.351" x2="69.34" y2="-12.101"/>
		<line fill="none" stroke="#231F20" stroke-width="0.3" x1="73.715" y1="-6.101" x2="69.465" y2="-6.851"/>
		<line fill="none" stroke="#231F20" stroke-width="0.3" x1="63.84" y1="-13.101" x2="61.59" y2="-11.351"/>
		<line fill="none" stroke="#231F20" stroke-width="0.3" x1="58.519" y1="-12.976" x2="56.269" y2="-11.226"/>
		<line fill="none" stroke="#231F20" stroke-width="0.3" x1="72.09" y1="-29.101" x2="69.09" y2="-29.101"/>
		<line fill="none" stroke="#231F20" stroke-width="0.3" x1="58.34" y1="-56.6" x2="56.447" y2="-59.424"/>
		<line fill="none" stroke="#231F20" stroke-width="0.3" x1="61.536" y1="-69.17" x2="59.644" y2="-71.995"/>
		<line fill="none" stroke="#231F20" stroke-width="0.3" x1="28.34" y1="-58.1" x2="26.686" y2="-60.664"/>
		<line fill="none" stroke="#231F20" stroke-width="0.3" x1="43.381" y1="-62.543" x2="45.234" y2="-65.225"/>
		<line fill="none" stroke="#231F20" stroke-width="0.3" x1="61.788" y1="-54.884" x2="63.642" y2="-57.566"/>
		<line fill="none" stroke="#231F20" stroke-width="0.3" x1="38.663" y1="-63.009" x2="40.517" y2="-65.691"/>
		<line fill="none" stroke="#231F20" stroke-width="0.3" x1="68.305" y1="-1.251" x2="69.418" y2="-4.212"/>
		<line fill="none" stroke="#231F20" stroke-width="0.3" x1="63.467" y1="-1.116" x2="62.84" y2="-4.392"/>
		<line fill="none" stroke="#231F20" stroke-width="0.3" x1="57.34" y1="-26.101" x2="55.447" y2="-28.925"/>
		<line fill="none" stroke="#231F20" stroke-width="0.3" x1="43.504" y1="-25.188" x2="41.611" y2="-28.013"/>
		<line fill="none" stroke="#231F20" stroke-width="0.3" x1="24.786" y1="-23.188" x2="22.894" y2="-26.013"/>
		<line fill="none" stroke="#231F20" stroke-width="0.3" x1="48.994" y1="-54.536" x2="47.34" y2="-57.1"/>
		<line fill="none" stroke="#231F20" stroke-width="0.3" x1="48.252" y1="-0.263" x2="48.367" y2="-3.259"/>
		<line fill="none" stroke="#231F20" stroke-width="0.3" x1="40.881" y1="-3.794" x2="42.734" y2="-6.476"/>
		<line fill="none" stroke="#231F20" stroke-width="0.3" x1="32.553" y1="-1.858" x2="31.129" y2="-3.913"/>
		<line fill="none" stroke="#231F20" stroke-width="0.3" x1="50.656" y1="-33.312" x2="53.008" y2="-35.974"/>
		<line fill="none" stroke="#231F20" stroke-width="0.3" x1="16.285" y1="-1.726" x2="17.611" y2="-3.677"/>
		<line fill="none" stroke="#231F20" stroke-width="0.3" x1="9.588" y1="-3.229" x2="10.498" y2="-7.448"/>
		<line fill="none" stroke="#231F20" stroke-width="0.3" x1="5.227" y1="-0.394" x2="3.562" y2="-2.708"/>
		<line fill="none" stroke="#231F20" stroke-width="0.3" x1="27.381" y1="-4.056" x2="27.496" y2="-7.054"/>
		<line fill="none" stroke="#231F20" stroke-width="0.3" x1="7.59" y1="-68.85" x2="11.09" y2="-67.35"/>
		<line fill="none" stroke="#231F20" stroke-width="0.3" x1="10.215" y1="-72.833" x2="13.715" y2="-71.333"/>
		<line fill="none" stroke="#231F20" stroke-width="0.3" x1="4.84" y1="-53.35" x2="5.09" y2="-56.6"/>
		<line fill="none" stroke="#231F20" stroke-width="0.3" x1="8.34" y1="-30.351" x2="9.84" y2="-26.601"/>
		<line fill="none" stroke="#231F20" stroke-width="0.3" x1="5.59" y1="-35.851" x2="7.84" y2="-39.601"/>
		<line fill="none" stroke="#231F20" stroke-width="0.3" x1="29.59" y1="-69.6" x2="27.34" y2="-67.1"/>
		<line fill="none" stroke="#231F20" stroke-width="0.3" x1="33.84" y1="-69.6" x2="37.09" y2="-66.85"/>
		<line fill="none" stroke="#231F20" stroke-width="0.3" x1="50.59" y1="-69.6" x2="53.84" y2="-67.6"/>
		<line fill="none" stroke="#231F20" stroke-width="0.3" x1="52.84" y1="-63.6" x2="50.84" y2="-60.35"/>
		<line fill="none" stroke="#231F20" stroke-width="0.3" x1="59.84" y1="-64.85" x2="64.84" y2="-67.1"/>
		<line fill="none" stroke="#231F20" stroke-width="0.3" x1="67.34" y1="-61.35" x2="64.84" y2="-59.6"/>
		<line fill="none" stroke="#231F20" stroke-width="0.3" x1="64.09" y1="-63.418" x2="61.59" y2="-61.668"/>
		<line fill="none" stroke="#231F20" stroke-width="0.3" x1="71.84" y1="-71.509" x2="69.34" y2="-69.759"/>
		<line fill="none" stroke="#231F20" stroke-width="0.3" x1="70.09" y1="-36.849" x2="67.59" y2="-35.099"/>
		<line fill="none" stroke="#231F20" stroke-width="0.3" x1="19.09" y1="-69.35" x2="19.09" y2="-66.35"/>
		<line fill="none" stroke="#231F20" stroke-width="0.3" x1="24.312" y1="-73.583" x2="24.312" y2="-70.583"/>
		<line fill="none" stroke="#231F20" stroke-width="0.3" x1="16.09" y1="-64.35" x2="12.84" y2="-63.85"/>
		<line fill="none" stroke="#231F20" stroke-width="0.3" x1="20.34" y1="-59.85" x2="20.84" y2="-56.6"/>
		<line fill="none" stroke="#231F20" stroke-width="0.3" x1="21.34" y1="-64.35" x2="24.84" y2="-65.1"/>
		<line fill="none" stroke="#231F20" stroke-width="0.3" x1="9.59" y1="-52.6" x2="12.34" y2="-54.6"/>
		<line fill="none" stroke="#231F20" stroke-width="0.3" x1="7.84" y1="-10.101" x2="8.09" y2="-14.101"/>
		<line fill="none" stroke="#231F20" stroke-width="0.3" x1="7.59" y1="-18.351" x2="9.84" y2="-20.851"/>
		<line fill="none" stroke="#231F20" stroke-width="0.3" x1="21.59" y1="-8.351" x2="19.09" y2="-11.851"/>
		<line fill="none" stroke="#231F20" stroke-width="0.3" x1="30.09" y1="-45.601" x2="27.59" y2="-43.851"/>
		<line fill="none" stroke="#231F20" stroke-width="0.3" x1="58.09" y1="-40.351" x2="55.34" y2="-41.851"/>
		<line fill="none" stroke="#231F20" stroke-width="0.3" x1="27.09" y1="-34.101" x2="23.34" y2="-34.851"/>
		<line fill="none" stroke="#231F20" stroke-width="0.3" x1="31.84" y1="-24.601" x2="29.84" y2="-23.101"/>
		<line fill="none" stroke="#231F20" stroke-width="0.3" x1="36.465" y1="-20.351" x2="34.465" y2="-18.851"/>
		<line fill="none" stroke="#231F20" stroke-width="0.3" x1="29.84" y1="-50.35" x2="27.84" y2="-48.85"/>
		<line fill="none" stroke="#231F20" stroke-width="0.3" x1="31.59" y1="-39.794" x2="29.59" y2="-38.294"/>
		<line fill="none" stroke="#231F20" stroke-width="0.3" x1="29.34" y1="-12.601" x2="26.59" y2="-14.851"/>
		<line fill="none" stroke="#231F20" stroke-width="0.3" x1="32.59" y1="-8.351" x2="30.59" y2="-9.601"/>
		<line fill="none" stroke="#231F20" stroke-width="0.3" x1="29.84" y1="-19.351" x2="26.84" y2="-19.351"/>
		<line fill="none" stroke="#231F20" stroke-width="0.3" x1="14.34" y1="-23.851" x2="11.34" y2="-23.851"/>
		<line fill="none" stroke="#231F20" stroke-width="0.3" x1="4.09" y1="-28.851" x2="1.09" y2="-28.851"/>
		<line fill="none" stroke="#231F20" stroke-width="0.3" x1="40.09" y1="-55.1" x2="37.59" y2="-53.35"/>
		<line fill="none" stroke="#231F20" stroke-width="0.3" x1="44.734" y1="-59.1" x2="42.234" y2="-57.35"/>
		<line fill="none" stroke="#231F20" stroke-width="0.3" x1="54.258" y1="-25.226" x2="51.758" y2="-23.476"/>
		<line fill="none" stroke="#231F20" stroke-width="0.3" x1="44.754" y1="-19.241" x2="42.254" y2="-17.491"/>
		<line fill="none" stroke="#231F20" stroke-width="0.3" x1="42.84" y1="-49.85" x2="39.84" y2="-49.85"/>
		<line fill="none" stroke="#231F20" stroke-width="0.3" x1="39.59" y1="-42.351" x2="36.84" y2="-44.101"/>
		<line fill="none" stroke="#231F20" stroke-width="0.3" x1="39.715" y1="-33.976" x2="38.965" y2="-31.476"/>
		<line fill="none" stroke="#231F20" stroke-width="0.3" x1="39.34" y1="-22.101" x2="36.59" y2="-24.351"/>
		<line fill="none" stroke="#231F20" stroke-width="0.3" x1="37.729" y1="-30.476" x2="34.979" y2="-32.726"/>
		<line fill="none" stroke="#231F20" stroke-width="0.3" x1="39.84" y1="-14.101" x2="37.84" y2="-15.351"/>
		<line fill="none" stroke="#231F20" stroke-width="0.3" x1="34.09" y1="-14.726" x2="32.09" y2="-15.976"/>
		<line fill="none" stroke="#231F20" stroke-width="0.3" x1="4.09" y1="-12.844" x2="2.09" y2="-14.094"/>
		<line fill="none" stroke="#231F20" stroke-width="0.3" x1="24.665" y1="-10.726" x2="22.665" y2="-11.976"/>
		<line fill="none" stroke="#231F20" stroke-width="0.3" x1="63.312" y1="-29.583" x2="60.312" y2="-29.583"/>
		<line fill="none" stroke="#231F20" stroke-width="0.3" x1="22.59" y1="-31.101" x2="25.09" y2="-29.351"/>
		<line fill="none" stroke="#231F20" stroke-width="0.3" x1="56.562" y1="-33.726" x2="59.062" y2="-31.976"/>
		<line fill="none" stroke="#231F20" stroke-width="0.3" x1="27.34" y1="-53.6" x2="30.34" y2="-53.6"/>
		<line fill="none" stroke="#231F20" stroke-width="0.3" x1="16.111" y1="-55.1" x2="19.111" y2="-55.1"/>
		<line fill="none" stroke="#231F20" stroke-width="0.3" x1="18.676" y1="-40.353" x2="21.176" y2="-38.603"/>
		<line fill="none" stroke="#231F20" stroke-width="0.3" x1="9.84" y1="-39.708" x2="12.34" y2="-37.958"/>
		<line fill="none" stroke="#231F20" stroke-width="0.3" x1="12.34" y1="-34.101" x2="15.34" y2="-34.101"/>
		<line fill="none" stroke="#231F20" stroke-width="0.3" x1="15.59" y1="-26.601" x2="18.34" y2="-28.351"/>
		<line fill="none" stroke="#231F20" stroke-width="0.3" x1="47.59" y1="-41.101" x2="49.975" y2="-42.661"/>
		<line fill="none" stroke="#231F20" stroke-width="0.3" x1="47.928" y1="-48.629" x2="50.311" y2="-46.808"/>
		<line fill="none" stroke="#231F20" stroke-width="0.3" x1="55.062" y1="-52.616" x2="54.84" y2="-49.6"/>
		<line fill="none" stroke="#231F20" stroke-width="0.3" x1="53.924" y1="-58.608" x2="53.701" y2="-55.592"/>
		<line fill="none" stroke="#231F20" stroke-width="0.3" x1="45.676" y1="-8.538" x2="48.725" y2="-8.411"/>
		<line fill="none" stroke="#231F20" stroke-width="0.3" x1="42.783" y1="-1.18" x2="45.832" y2="-1.053"/>
		<line fill="none" stroke="#231F20" stroke-width="0.3" x1="46.678" y1="-14.38" x2="49.061" y2="-12.558"/>
		<line fill="none" stroke="#231F20" stroke-width="0.3" x1="47.803" y1="-19.277" x2="50.186" y2="-17.455"/>
		<line fill="none" stroke="#231F20" stroke-width="0.3" x1="36.354" y1="-9.262" x2="38.736" y2="-7.439"/>
		<line fill="none" stroke="#231F20" stroke-width="0.3" x1="53.812" y1="-18.366" x2="54.936" y2="-15.306"/>
		<line fill="none" stroke="#231F20" stroke-width="0.3" x1="48.59" y1="-30.601" x2="46.09" y2="-28.851"/>
		<line fill="none" stroke="#231F20" stroke-width="0.3" x1="48.34" y1="-23.101" x2="45.09" y2="-24.101"/>
		<line fill="none" stroke="#231F20" stroke-width="0.3" x1="45.715" y1="-44.226" x2="42.465" y2="-45.226"/>
		<line fill="none" stroke="#231F20" stroke-width="0.3" x1="57.34" y1="-7.601" x2="54.59" y2="-9.351"/>
		<line fill="none" stroke="#231F20" stroke-width="0.3" x1="64.84" y1="-33.101" x2="62.09" y2="-34.851"/>
		<line fill="none" stroke="#231F20" stroke-width="0.3" x1="62.59" y1="-22.101" x2="60.59" y2="-20.601"/>
		<line fill="none" stroke="#231F20" stroke-width="0.3" x1="19.926" y1="-44.538" x2="22.975" y2="-44.411"/>
		<line fill="none" stroke="#231F20" stroke-width="0.3" x1="20.928" y1="-50.379" x2="23.311" y2="-48.558"/>
		<line fill="none" stroke="#231F20" stroke-width="0.3" x1="58.09" y1="-45.601" x2="60.811" y2="-45.058"/>
		<line fill="none" stroke="#231F20" stroke-width="0.3" x1="66.399" y1="-48.065" x2="69.12" y2="-47.522"/>
		<line fill="none" stroke="#231F20" stroke-width="0.3" x1="15.34" y1="-18.351" x2="15.84" y2="-15.101"/>
		<line fill="none" stroke="#231F20" stroke-width="0.3" x1="17.34" y1="-20.351" x2="20.84" y2="-21.101"/>
		<line fill="none" stroke="#231F20" stroke-width="0.3" x1="33.09" y1="-61.35" x2="37.09" y2="-60.6"/>
		<line fill="none" stroke="#231F20" stroke-width="0.3" x1="33.465" y1="-56.975" x2="37.465" y2="-56.225"/>
		<line fill="none" stroke="#231F20" stroke-width="0.3" x1="33.812" y1="-40.583" x2="34.312" y2="-37.083"/>
		<line fill="none" stroke="#231F20" stroke-width="0.3" x1="64.84" y1="-51.1" x2="62.34" y2="-52.35"/>
		<line fill="none" stroke="#231F20" stroke-width="0.3" x1="10.34" y1="-60.6" x2="13.59" y2="-57.85"/>
		<line fill="none" stroke="#231F20" stroke-width="0.3" x1="5.09" y1="-44.601" x2="2.59" y2="-42.851"/>
		<line fill="none" stroke="#231F20" stroke-width="0.3" x1="16.09" y1="-50.1" x2="14.09" y2="-48.6"/>
		<line fill="none" stroke="#231F20" stroke-width="0.3" x1="16.09" y1="-44.851" x2="14.09" y2="-43.351"/>
		<line fill="none" stroke="#231F20" stroke-width="0.3" x1="41.631" y1="-69.293" x2="43.484" y2="-71.975"/>
		<line fill="none" stroke="#231F20" stroke-width="0.3" x1="36.663" y1="-72.384" x2="38.517" y2="-75.066"/>
		<line fill="none" stroke="#231F20" stroke-width="0.3" x1="64.881" y1="-39.044" x2="66.734" y2="-41.726"/>
		<line fill="none" stroke="#231F20" stroke-width="0.3" x1="34.131" y1="-47.794" x2="34.84" y2="-50.6"/>
		<line fill="none" stroke="#231F20" stroke-width="0.3" x1="20.631" y1="-15.294" x2="21.34" y2="-18.101"/>
		<line fill="none" stroke="#231F20" stroke-width="0.3" x1="22.956" y1="-1.68" x2="23.665" y2="-4.486"/>
		<line fill="none" stroke="#231F20" stroke-width="0.3" x1="13.485" y1="-9.419" x2="14.194" y2="-12.226"/>
		<line fill="none" stroke="#231F20" stroke-width="0.3" x1="32.09" y1="-31.351" x2="30.09" y2="-29.851"/>
		<line fill="none" stroke="#231F20" stroke-width="0.3" x1="3.09" y1="-50.1" x2="0.09" y2="-50.1"/>
		<line fill="none" stroke="#231F20" stroke-width="0.3" x1="2.09" y1="-34.351" x2="0.09" y2="-32.851"/>
		<line fill="none" stroke="#231F20" stroke-width="0.3" x1="68.305" y1="-73.251" x2="69.418" y2="-76.211"/>
		<line fill="none" stroke="#231F20" stroke-width="0.3" x1="63.467" y1="-73.116" x2="62.84" y2="-76.392"/>
		<line fill="none" stroke="#231F20" stroke-width="0.3" x1="48.252" y1="-72.262" x2="48.367" y2="-75.259"/>
		<line fill="none" stroke="#231F20" stroke-width="0.3" x1="32.553" y1="-73.858" x2="31.129" y2="-75.913"/>
		<line fill="none" stroke="#231F20" stroke-width="0.3" x1="16.285" y1="-73.725" x2="17.611" y2="-75.676"/>
		<line fill="none" stroke="#231F20" stroke-width="0.3" x1="5.227" y1="-72.393" x2="3.562" y2="-74.708"/>
		<line fill="none" stroke="#231F20" stroke-width="0.3" x1="5.59" y1="-22.101" x2="1.84" y2="-22.851"/>
		<line fill="none" stroke="#231F20" stroke-width="0.3" x1="68.707" y1="-16.759" x2="66.812" y2="-19.583"/>
		<line fill="none" stroke="#231F20" stroke-width="0.3" x1="62.483" y1="-14.563" x2="60.589" y2="-17.388"/>
		<line fill="none" stroke="#231F20" stroke-width="0.3" x1="66.755" y1="-6.027" x2="64.86" y2="-8.852"/>
		<line fill="none" stroke="#231F20" stroke-width="0.3" x1="24.312" y1="-38.083" x2="24.996" y2="-40.872"/>
		<line fill="none" stroke="#231F20" stroke-width="0.3" x1="9.498" y1="-43.831" x2="10.182" y2="-46.62"/>
		<line fill="none" stroke="#231F20" stroke-width="0.3" x1="45.09" y1="-37.101" x2="43.09" y2="-35.601"/>
		<line fill="none" stroke="#231F20" stroke-width="0.3" x1="39.663" y1="-39.353" x2="37.663" y2="-37.853"/>
		<line fill="none" stroke="#231F20" stroke-width="0.3" x1="55.812" y1="-72.083" x2="57.812" y2="-75.083"/>
		<line fill="none" stroke="#231F20" stroke-width="0.3" x1="55.812" y1="-0.083" x2="57.812" y2="-3.083"/>
	</g>
</pattern>
<pattern  id="SVGID_1_" xlink:href="#mixeat-1" patternTransform="matrix(0.5766 0 0 0.5766 -3486.377 -3326.1533)">
</pattern>
<rect x="34.771" y="27.901" fill="url(#SVGID_1_)" width="27.729" height="27.907"/>
</svg>
