<?xml version="1.0" encoding="utf-8"?>
<!-- Generator: Adobe Illustrator 16.0.0, SVG Export Plug-In . SVG Version: 6.00 Build 0)  -->
<!DOCTYPE svg PUBLIC "-//W3C//DTD SVG 1.1//EN" "http://www.w3.org/Graphics/SVG/1.1/DTD/svg11.dtd">
<svg version="1.1" id="Layer_1" xmlns="http://www.w3.org/2000/svg" xmlns:xlink="http://www.w3.org/1999/xlink" x="0px" y="0px"
	 width="100px" height="100px" viewBox="0 0 100 100" enable-background="new 0 0 100 100" xml:space="preserve">
<g>
	<path fill="#231F20" d="M49.986,91C27.379,91,8.987,72.607,8.987,50S27.379,9,49.986,9s41.001,18.392,41.001,41
		S72.594,91,49.986,91z M49.986,11c-21.504,0-38.999,17.495-38.999,39c0,21.504,17.495,39,38.999,39
		c21.506,0,39.001-17.496,39.001-39C88.987,28.496,71.492,11,49.986,11z"/>
	<path fill="#231F20" d="M41.303,43.904h3.721v-3.616c0-1.596,0.041-4.056,1.199-5.579c1.221-1.613,2.896-2.71,5.777-2.71
		c4.695,0,6.672,0.67,6.672,0.67l-0.931,5.514c0,0-1.55-0.449-2.997-0.449c-1.448,0-2.744,0.519-2.744,1.965v4.205h5.936
		l-0.414,5.386H52v18.709h-6.977V49.29h-3.721V43.904z"/>
</g>
</svg>
