<?xml version="1.0" encoding="utf-8"?>
<!-- Generator: Adobe Illustrator 16.0.0, SVG Export Plug-In . SVG Version: 6.00 Build 0)  -->
<!DOCTYPE svg PUBLIC "-//W3C//DTD SVG 1.1//EN" "http://www.w3.org/Graphics/SVG/1.1/DTD/svg11.dtd">
<svg version="1.1" id="Layer_1" xmlns="http://www.w3.org/2000/svg" xmlns:xlink="http://www.w3.org/1999/xlink" x="0px" y="0px"
	 width="100px" height="100px" viewBox="0 0 100 100" enable-background="new 0 0 100 100" xml:space="preserve">
<g>
	<path fill="#231F20" d="M50.044,91c-22.607,0-41-18.393-41-41s18.393-41,41-41s41,18.393,41,41S72.651,91,50.044,91z M50.044,11
		c-21.505,0-39,17.495-39,39s17.495,39,39,39s39-17.495,39-39S71.549,11,50.044,11z"/>
	<path fill="#231F20" d="M61.091,32.013H39.006c-3.835,0-6.957,3.118-6.957,6.952v7.342v14.729c0,3.834,3.122,6.952,6.957,6.952
		h22.085c3.835,0,6.958-3.118,6.958-6.952V46.307v-7.342C68.049,35.131,64.926,32.013,61.091,32.013z M63.086,36.16l0.795-0.004
		v0.793v5.304L57.8,42.275l-0.021-6.099L63.086,36.16z M44.912,46.307c1.149-1.595,3.021-2.641,5.137-2.641s3.985,1.046,5.136,2.641
		c0.751,1.041,1.203,2.312,1.203,3.693c0,3.492-2.845,6.33-6.339,6.33c-3.495,0-6.337-2.838-6.337-6.33
		C43.712,48.619,44.162,47.348,44.912,46.307z M64.541,61.035c0,1.902-1.547,3.446-3.45,3.446H39.006
		c-1.903,0-3.449-1.544-3.449-3.446V46.307h5.374c-0.463,1.143-0.726,2.388-0.726,3.693c0,5.426,4.416,9.837,9.844,9.837
		s9.843-4.411,9.843-9.837c0-1.306-0.264-2.551-0.725-3.693h5.374V61.035z"/>
</g>
</svg>
