<?xml version="1.0" encoding="utf-8"?>
<!-- Generator: Adobe Illustrator 16.0.0, SVG Export Plug-In . SVG Version: 6.00 Build 0)  -->
<!DOCTYPE svg PUBLIC "-//W3C//DTD SVG 1.1//EN" "http://www.w3.org/Graphics/SVG/1.1/DTD/svg11.dtd">
<svg version="1.1" id="Layer_1" xmlns="http://www.w3.org/2000/svg" xmlns:xlink="http://www.w3.org/1999/xlink" x="0px" y="0px"
	 width="100px" height="100px" viewBox="0 0 100 100" enable-background="new 0 0 100 100" xml:space="preserve">
<g>
	<path d="M95.093,49.939c0-4.21-3.54-7.941-9.567-11.003l0.096,2.392c4.879,2.584,7.654,5.645,7.654,8.611
		c0,3.062-2.775,6.123-7.75,8.706V21.811v-0.096v-0.096c0,0,0-0.096-0.096-0.096c0-0.096-0.096-0.191-0.191-0.287
		c0-0.096-0.096-0.096-0.096-0.096l-0.096-0.096c-0.096,0-0.191,0-0.191-0.096l-0.096-0.096l-44.298-6.219
		c-0.191,0-0.383,0-0.479,0.096c-9.567,4.401-24.206,10.906-25.258,11.29l0,0h-0.096c-0.096,0-0.287,0.095-0.382,0.095h-0.096l0,0
		c-0.096,0.097-0.191,0.287-0.287,0.384l0,0c0,0.095,0,0.095,0,0.19v0.096v31.574c-4.879-2.584-7.75-5.55-7.75-8.707
		c0-2.967,2.679-6.027,7.558-8.611l0.096-2.392c-6.028,2.966-9.568,6.793-9.568,11.003c0,4.209,3.444,7.941,9.568,11.002v15.691
		c0,0.479,0.287,0.861,0.765,0.861l48.125,9.09c0.097,0,0.097,0,0.191,0c0.191,0,0.383-0.096,0.479-0.191l0,0L85.143,70.51
		c0.287-0.191,0.383-0.479,0.383-0.766V60.56C91.744,57.881,95.093,54.053,95.093,49.939z M40.462,16.645l41.332,5.74l-17.413,9.759
		l-1.723,0.957l-44.394-6.507C21.422,25.159,27.833,22.385,40.462,16.645z M15.586,61.803c3.157,1.34,6.984,2.584,11.29,3.541
		l-6.506,4.688l0.957,1.818l9.376-6.889l-6.602-10.43l-1.531,1.244l4.688,7.367c-4.497-0.957-8.516-2.297-11.769-3.731V28.029
		l20.57,2.966l25.737,3.731v49.848L15.49,75.771V61.803H15.586z M83.707,69.648L63.711,84V34.535l19.996-11.193v36.069
		c-1.817,0.861-3.922,1.627-6.219,2.296c-0.479,0.191-0.766,0.766-0.67,1.34s0.67,0.957,1.148,0.766
		c2.105-0.67,4.019-1.34,5.74-2.105V69.648z"/>
</g>
</svg>
