<?xml version="1.0" encoding="utf-8"?>
<!-- Generator: Adobe Illustrator 16.0.0, SVG Export Plug-In . SVG Version: 6.00 Build 0)  -->
<!DOCTYPE svg PUBLIC "-//W3C//DTD SVG 1.1//EN" "http://www.w3.org/Graphics/SVG/1.1/DTD/svg11.dtd">
<svg version="1.1" id="Layer_1" xmlns="http://www.w3.org/2000/svg" xmlns:xlink="http://www.w3.org/1999/xlink" x="0px" y="0px"
	 width="100px" height="100px" viewBox="0 0 100 100" enable-background="new 0 0 100 100" xml:space="preserve">
<g>
	<g>
		<path d="M49.646,74.457c-13.543,0-24.561-11.018-24.561-24.561c0-13.543,11.018-24.561,24.561-24.561s24.561,11.018,24.561,24.561
			C74.207,63.439,63.189,74.457,49.646,74.457z M49.646,26.972c-12.64,0-22.924,10.284-22.924,22.924s10.284,22.923,22.924,22.923
			c12.641,0,22.924-10.283,22.924-22.923S62.287,26.972,49.646,26.972z"/>
	</g>
	<g>
		<g>
			<path d="M49.467,60.328c-0.397,0-0.72-0.322-0.72-0.72V40.183c0-0.397,0.322-0.719,0.72-0.719c0.397,0,0.719,0.322,0.719,0.719
				v19.426C50.186,60.006,49.864,60.328,49.467,60.328z"/>
		</g>
		<g>
			<path d="M59.18,50.616H39.754c-0.397,0-0.72-0.323-0.72-0.72c0-0.397,0.322-0.72,0.72-0.72H59.18c0.397,0,0.719,0.322,0.719,0.72
				C59.898,50.293,59.577,50.616,59.18,50.616z"/>
		</g>
	</g>
</g>
</svg>
