<?xml version="1.0" encoding="utf-8"?>
<!-- Generator: Adobe Illustrator 16.0.0, SVG Export Plug-In . SVG Version: 6.00 Build 0)  -->
<!DOCTYPE svg PUBLIC "-//W3C//DTD SVG 1.1//EN" "http://www.w3.org/Graphics/SVG/1.1/DTD/svg11.dtd">
<svg version="1.1" id="Layer_1" xmlns="http://www.w3.org/2000/svg" xmlns:xlink="http://www.w3.org/1999/xlink" x="0px" y="0px"
	 width="100px" height="100px" viewBox="0 0 100 100" enable-background="new 0 0 100 100" xml:space="preserve">
<g>
	<g>
		<path d="M49.646,74.23c-13.543,0-24.561-11.018-24.561-24.561c0-13.543,11.018-24.561,24.561-24.561s24.561,11.018,24.561,24.561
			C74.207,63.213,63.189,74.23,49.646,74.23z M49.646,26.746c-12.64,0-22.924,10.283-22.924,22.923s10.284,22.924,22.924,22.924
			c12.641,0,22.924-10.284,22.924-22.924S62.287,26.746,49.646,26.746z"/>
	</g>
	<g>
		<path d="M60.699,50.488H38.594c-0.452,0-0.819-0.366-0.819-0.819c0-0.452,0.367-0.818,0.819-0.818h22.105
			c0.451,0,0.818,0.367,0.818,0.818C61.518,50.122,61.15,50.488,60.699,50.488z"/>
	</g>
</g>
</svg>
